<svg xmlns="http://www.w3.org/2000/svg" viewBox="0 0 400 240" fill="none">
  <defs>
    <linearGradient id="g1" x1="0" y1="0" x2="1" y2="1">
      <stop offset="0" stop-color="#38bdf8"/>
      <stop offset="1" stop-color="#6366f1"/>
    </linearGradient>
    <linearGradient id="g2" x1="0" y1="1" x2="1" y2="0">
      <stop offset="0" stop-color="#f59e0b"/>
      <stop offset="1" stop-color="#ef4444"/>
    </linearGradient>
  </defs>
  <ellipse cx="200" cy="215" rx="150" ry="14" fill="#000" opacity=".12"/>
  <circle cx="320" cy="60" r="36" fill="url(#g2)" opacity=".95"/>
  <circle cx="320" cy="60" r="36" fill="none" stroke="#fff" stroke-width="2" stroke-dasharray="4 6"/>
  <path d="M70 200 Q90 110 160 110 Q220 110 230 200 Z" fill="url(#g1)"/>
  <rect x="150" y="150" width="120" height="60" rx="14" fill="#fff" opacity=".95"/>
  <rect x="162" y="164" width="60" height="8" rx="4" fill="#cbd5e1"/>
  <rect x="162" y="180" width="90" height="8" rx="4" fill="#e2e8f0"/>
  <rect x="162" y="196" width="40" height="8" rx="4" fill="#e2e8f0"/>
  <circle cx="120" cy="92" r="22" fill="#fde68a"/>
  <path d="M104 122 Q120 100 136 122 L144 170 Q120 180 96 170 Z" fill="#0ea5e9"/>
  <rect x="108" y="170" width="10" height="32" rx="3" fill="#1e293b"/>
  <rect x="122" y="170" width="10" height="32" rx="3" fill="#1e293b"/>
  <path d="M260 70 L290 50 L300 95 L270 110 Z" fill="#22c55e" opacity=".85"/>
  <circle cx="50" cy="40" r="6" fill="#fbbf24"/>
  <circle cx="370" cy="180" r="5" fill="#a78bfa"/>
  <circle cx="40" cy="160" r="4" fill="#34d399"/>
</svg>
